@startuml
skinparam dpi 150
skinparam classAttributeIconSize 0
skinparam classFontSize 10
skinparam wrapWidth 100
top to bottom direction

class MecanicaBase {
}
class AgendamentoController {
  +criarAgendamentoComAlocacao()
}
class ClienteController {
  +criar()
  +listar()
  +listar()
  +buscarPorId()
  +atualizar()
  +remover()
}
class MainViewController {
  - btnClientes : MFXButton
  - btnOficina : MFXButton
  - btnServicos : MFXButton
  - btnAgendamentos : MFXButton
  - btnOrdemServico : MFXButton
  - btnColaboradores : MFXButton
  - btnFinanceiro : MFXButton
  - adminSection : VBox
  +initialize()
  +abrirClientes()
  +abrirOficina()
  +abrirServicos()
  +abrirAgendamentos()
  +abrirOrdens()
  +abrirColaboradores()
  +abrirFinanceiro()
}
class Crud {
  +validarCriacao()
  +validarAtualizacao()
  +buscarPorId()
  +buscarPorId()
  +listarTodos()
  +removerPorId()
  +criar()
  +atualizar()
}
class "Entity" {
  - atualizadoEm : LocalDateTime
  +touch()
  +getId()
  +getCriadoEm()
  +getAtualizadoEm()
}
class Session {
}
class BenchmarkOrdemDeServico {
}
class JasyptCrypto {
}
class Database {
}
class PecaFactory {
}
class Agendamento {
  - data : LocalDateTime
  - descricaoProblema : String
  - status : StatusAgendamento
  - ordemDeServico : UUID
  - servico : UUID
  - elevador : UUID
  - funcionario : UUID
  - veiculo : UUID
  +getData()
  +setData()
  +getDescricaoProblema()
  +setDescricaoProblema()
  +getStatus()
  +setStatus()
  +getServico()
  +setServico()
  +getOrdemDeServico()
  +setOrdemDeServico()
  +getFuncionario()
  +setFuncionario()
  +getVeiculo()
  +setVeiculo()
  +getElevador()
  +setElevador()
  +compareTo()
  +toString()
}
class CategoriaDespesa {
  +getTitulo()
  +toString()
}
class Despesa {
  - descricao : String
  - valor : float
  +getDescricao()
  +setDescricao()
  +getValor()
  +setValor()
  +getCategoria()
  +toString()
}
class OrdemDeServico {
  - clienteId : UUID
  - status : StatusOrdemDeServico
  - finalizadoEm : LocalDateTime
  +getClienteId()
  +setClienteId()
  +getServicos()
  +getPecas()
  +getAgendamentos()
  +getStatus()
  +getFinalizadoEm()
  +setStatus()
  +addServico()
  +removeServicoPor()
  +addPeca()
  +removePeca()
  +addAgendamento()
  +removeAgendamento()
  +toString()
}
class PecaItem {
  - peca : UUID
  - quantidade : int
  - valorUnitario : float
  +getPeca()
  +setPeca()
  +getQuantidade()
  +setQuantidade()
  +getValorUnitario()
  +setValorUnitario()
  +getOrdemDeServico()
  +toString()
}
class ServicoItem {
  - servico : UUID
  - valorUnitario : float
  +getServico()
  +setServico()
  +getValorUnitario()
  +setValorUnitario()
  +getOrdemDeServico()
  +toString()
}
class Elevador {
  - tipo : TipoElevador
  +getTipo()
  +setTipo()
  +toString()
}
class EntradaPeca {
  - quantidade : int
  - nomeFornecedor : String
  - custo : float
  - peca : UUID
  +getPecaId()
  +getPeca()
  +setPeca()
  +getQuantidade()
  +setQuantidade()
  +getNomeFornecedor()
  +setNomeFornecedor()
  +getCusto()
  +setCusto()
  +toString()
}
class Peca {
  - nome : String
  - valor : float
  - quantidade : int
  +getNome()
  +setNome()
  +getValor()
  +setValor()
  +getQuantidade()
  +setQuantidade()
  +reduzirEstoque()
  +adicionarEstoque()
  +toString()
}
class Servico {
  - tipo : String
  - preco : float
  - descricao : String
  - duracao : int
  - tipoFuncionario : TipoFuncionario
  - tipoElevador : TipoElevador
  - usaElevador : boolean
  +getTipo()
  +setTipo()
  +getPreco()
  +setPreco()
  +getDescricao()
  +setDescricao()
  +getDuracao()
  +setDuracao()
  +getTipoFuncionario()
  +setTipoFuncionario()
  +getTipoElevador()
  +setTipoElevador()
  +usaElevador()
  +setUsaElevador()
  +toString()
}
class Sistema {
  +toString()
}
class Veiculo {
  - modelo : String
  - placa : String
  - anoFabricacao : int
  - cor : String
  - status : StatusVeiculo
  - clienteId : UUID
  +getModelo()
  +setModelo()
  +getPlaca()
  +setPlaca()
  +getAnoFabricacao()
  +setAnoFabricacao()
  +getCor()
  +setCor()
  +getStatus()
  +setStatus()
  +setCliente()
  +getCliente()
  +toString()
}
class Administrador {
  +toString()
}
class Cliente {
  +addVeiculo()
  +removeVeiculo()
  +getVeiculos()
  +compareTo()
  +toString()
}
class Colaborador {
  - senha : String
  +getEmail()
  +compararSenha()
  +setSenha()
}
class Funcionario {
  - funcao : TipoFuncionario
  - salario : float
  +getFuncao()
  +setFuncao()
  +getSalario()
  +setSalario()
  +toString()
}
class Pessoa {
  - nome : String
  - email : String
  - cpf : String
  - telefone : String
  - endereco : String
  +getNome()
  +setNome()
  +getEmail()
  +setEmail()
  +getCpf()
  +setCpf()
  +getTelefone()
  +setTelefone()
  +getEndereco()
  +setEndereco()
}
class AgendamentoCrud {
  +getInstancias()
  +getId()
  +criarInstancia()
  +buscarComFiltros()
  +atualizarInstancia()
  +validarCriacao()
  +validarAtualizacao()
}
class CategoriaDespesaCrud {
  +getInstancias()
  +getId()
  +criarInstancia()
  +atualizarInstancia()
  +validarCriacao()
  +validarAtualizacao()
}
class DespesaCrud {
  +getInstancias()
  +getId()
  +criarInstancia()
  +atualizarInstancia()
  +validarCriacao()
  +validarAtualizacao()
}
class OrdemDeServicoCrud {
  +getInstancias()
  +getId()
  +criarInstancia()
  +atualizarInstancia()
  +validarCriacao()
  +validarAtualizacao()
  +removerPecaItem()
  +venderPeca()
}
class GerarBalancoUseCase {
  +use()
  +buscarOSFinalizadas()
  +buscarOSCriadas()
  +contarPorStatus()
  +calcularTotalServicos()
  +calcularTotalPecas()
  +top3Servicos()
  +top3Pecas()
  +funcionarioMaisAtivo()
  +buscarDespesasNoPeriodo()
  +calcularTotalDespesas()
  +formatarGastosPorCategoria()
}
class GerarRelatorioUseCase {
  +use()
}
class PecaCrud {
  +getInstancias()
  +getId()
  +criarInstancia()
  +atualizarInstancia()
  +registrarEntrada()
}
class ServicoCrud {
  +getInstancias()
  +getId()
  +criarInstancia()
  +atualizarInstancia()
  +validarCriacao()
  +validarAtualizacao()
}
class VeiculoCrud {
  +getInstancias()
  +getId()
  +buscarPorFiltro()
  +criarInstancia()
  +atualizarInstancia()
  +validarCriacao()
  +validarAtualizacao()
  +removerPorId()
}
class AdministradorCrud {
  +getInstancias()
  +getId()
  +criarInstancia()
  +atualizarInstancia()
  +validarCriacao()
  +validarAtualizacao()
}
class ClienteCrud {
  +getInstancias()
  +getId()
  +buscarPorFiltro()
  +criarInstancia()
  +atualizarInstancia()
  +validarCriacao()
  +validarAtualizacao()
}
class FuncionarioCrud {
  +getInstancias()
  +getId()
  +criarInstancia()
  +atualizarInstancia()
  +validarCriacao()
  +validarAtualizacao()
}
class UsuarioCrud {
  +login()
}
class MainView {
  +start()
}
class AgendamentoTerminalHandler {
  +menu()
  +criar()
  +listar()
  +atualizarStatus()
  +cancelar()
}
class CategoriaDespesaTerminalHandler {
  +menu()
  +criar()
  +listar()
  +atualizar()
  +remover()
}
class ClienteTerminalHandler {
  +menu()
  +criar()
  +listar()
  +buscar()
  +atualizar()
  +remover()
}
class ColaboradorTerminalHandler {
  +menu()
  +criarFuncionario()
  +criarAdministrador()
  +listarFuncionarios()
  +listarAdministradores()
  +atualizarFuncionario()
  +atualizarAdministrador()
  +removerFuncionario()
  +removerAdministrador()
}
class DespesaTerminalHandler {
  +menu()
  +criar()
  +listar()
  +atualizar()
  +remover()
}
class GerarBalancoTerminalHandler {
  +menu()
}
class GerarRelatorioTerminalHandler {
  +menu()
}
class LoginTerminalHandler {
  +login()
}
class OficinaTerminalHandler {
  +menu()
}
class OrdemDeServicoTerminalHandler {
  +menu()
  +listar()
  +adicionarPeca()
  +finalizar()
}
class PecaTerminalHandler {
  +menu()
  +criar()
  +listar()
  +atualizar()
  +remover()
  +entradaManual()
  +importarCSV()
  +importarPecaItensComBenchmark()
}
class ServicoTerminalHandler {
  +menu()
  +criar()
  +listar()
  +atualizar()
  +remover()
  +escolherTipoFuncionario()
  +escolherTipoFuncionarioOptional()
  +escolherTipoElevador()
  +perguntarBoolean()
  +perguntarFloat()
  +perguntarInt()
}
class VeiculoTerminalHandler {
  +menu()
  +criar()
  +listar()
  +buscar()
  +atualizar()
  +remover()
  +selecionarClientePorBusca()
  +selecionarVeiculoRecebido()
}
class TerminalRouter {
  +start()
  +executarBenchmark()
  +menuFinanceiro()
}
"Entity" <|-- Database
"Entity" <|-- Database
"Entity" <|-- Database
"Entity" <|-- Database
"Entity" <|-- Database
"Entity" <|-- Database
"Entity" <|-- Agendamento
Comparable <|-- Agendamento
"Entity" <|-- CategoriaDespesa
"Entity" <|-- Despesa
"Entity" <|-- OrdemDeServico
"Entity" <|-- PecaItem
"Entity" <|-- ServicoItem
"Entity" <|-- Elevador
"Entity" <|-- EntradaPeca
"Entity" <|-- Peca
"Entity" <|-- Servico
"Entity" <|-- Veiculo
Colaborador <|-- Administrador
Pessoa <|-- Cliente
Comparable <|-- Cliente
Pessoa <|-- Colaborador
Autenticavel <|-- Colaborador
Colaborador <|-- Funcionario
"Entity" <|-- Pessoa
Crud <|-- AgendamentoCrud
Crud <|-- CategoriaDespesaCrud
Crud <|-- DespesaCrud
Crud <|-- OrdemDeServicoCrud
Crud <|-- PecaCrud
Crud <|-- ServicoCrud
Crud <|-- VeiculoCrud
UsuarioCrud <|-- AdministradorCrud
Crud <|-- ClienteCrud
UsuarioCrud <|-- FuncionarioCrud
Autenticavel <|-- UsuarioCrud
Crud <|-- UsuarioCrud
Application <|-- MainView

@enduml
